 <svg  version="1.0" xmlns="http://www.w3.org/2000/svg" 
width="300.000000pt" height="244.000000pt" 
viewBox="0 0 300.000000 244.000000"  
preserveAspectRatio="xMidYMid meet">  
<g transform="translate(0.000000,244.000000) scale(0.050000,-0.050000)" fill="blueviolet" stroke="none"> 
<path d="M3141 4767 c-136 -16 -262 -43 -311 -67 -46 -22 -93 -40 -106 -40 -13 0 -58 -18 -99 -40 -41 -22 -85 -40 -97 -40 -41 0 -208 -81 -208 -101 0 -10 -12 -19 -26 -19 -14 0 -57 -23 -95 -51 -38 -29 -100 -65 -139 -81 -69 -29 -540 -497 -540 -538 -1 -11 -29 -65 -64 -120 -126 -198 -202 -341 -246 -470 -2 -5 -9 -23 -15 -40 -7 -16 -23 -66 -36 -110 -13 -44 -31 -89 -39 -100 -132 -175 -59 -1294 97 -1499 9 -11 28 -64 43 -117 14 -53 69 -158 123 -234 53 -76 97 -145 97 -153 0 -102 212 -250 288 -200 l49 32 7 1145 c6 1031 10 1152 41 1206 18 33 56 113 85 178 180 416 697 684 1164 603 251 -44 646 -262 646 -357 0 -10 21 -35 47 -55 26 -21 72 -90 102 -153 30 -64 73 -154 95 -200 30 -62 37 -103 27 -162 -9 -50 -6 -85 8 -93 14 -9 21 -439 21 -1407 0 -767 7 -1404 15 -1416 47 -68 319 -59 394 14 10 10 34 18 52 18 18 0 88 36 157 80 68 44 127 80 132 80 4 0 48 27 97 60 49 33 92 60 97 60 10 0 476 466 476 476 0 5 27 48 60 97 33 49 60 94 60 99 0 6 28 51 61 100 81 117 133 237 161 370 12 59 39 144 58 188 91 204 84 1062 -10 1262 -16 35 -44 125 -61 200 -18 76 -39 147 -48 158 -8 11 -21 43 -28 71 -6 28 -61 114 -122 193 -61 78 -111 152 -111 164 0 38 -519 557 -592 592 -39 18 -122 69 -184 113 -93 65 -197 123 -264 147 -5 2 -23 9 -40 16 -16 7 -82 27 -144 44 -63 18 -140 45 -170 60 -31 15 -187 37 -350 49 -338 24 -315 25 -615 -12z m664 -190 c52 -1 95 -9 95 -17 0 -8 24 -12 54 -9 29 4 72 -4 95 -17 22 -12 47 -21 54 -19 8 2 63 -13 124 -34 60 -21 115 -32 121 -26 7 6 12 -4 12 -23 0 -19 8 -29 18 -23 26 16 84 -10 70 -32 -6 -10 -4 -16 6 -14 31 9 106 -26 95 -44 -6 -11 7 -19 29 -19 22 0 59 -20 81 -44 23 -24 41 -37 41 -29 0 8 18 5 41 -7 22 -12 35 -30 29 -41 -7 -10 1 -14 17 -7 17 6 42 -9 61 -35 18 -25 32 -38 32 -29 0 10 54 -35 119 -99 66 -64 114 -125 107 -137 -7 -12 -5 -15 4 -7 26 24 129 -84 115 -121 -7 -18 -4 -25 9 -18 12 8 26 -5 32 -28 10 -39 9 -39 -24 -10 -19 18 -41 26 -48 19 -7 -7 -26 -2 -42 12 -16 13 -55 26 -86 28 -31 3 -69 12 -84 22 -20 12 -24 10 -12 -8 12 -20 -2 -24 -57 -18 -40 5 -73 2 -73 -7 0 -9 -7 -14 -15 -12 -8 2 -52 -15 -98 -39 -45 -24 -88 -39 -95 -34 -6 5 -8 3 -2 -4 5 -8 -16 -29 -47 -48 -31 -19 -94 -92 -140 -162 -45 -70 -90 -136 -98 -147 -8 -11 -15 -38 -15 -60 1 -22 -11 -52 -25 -67 -14 -14 -22 -32 -17 -40 4 -7 -5 -24 -20 -38 -22 -21 -29 -17 -40 25 -7 27 -19 46 -27 41 -8 -5 -13 22 -10 60 3 41 -5 69 -18 70 -13 0 -45 49 -73 110 -27 60 -56 109 -65 109 -8 0 -15 14 -15 30 0 17 -10 30 -21 30 -12 0 -16 9 -9 20 7 11 -2 20 -19 20 -17 0 -31 11 -31 25 -1 14 -41 66 -89 115 -135 136 -162 160 -186 160 -12 0 -50 23 -83 52 -34 28 -62 46 -62 38 0 -7 -33 7 -74 32 -40 25 -67 35 -59 23 9 -15 -6 -13 -40 5 -30 15 -63 23 -74 16 -10 -7 -13 -2 -5 11 14 23 1 28 -83 28 -25 0 -45 9 -45 19 0 10 -17 13 -38 7 -21 -7 -44 -4 -50 5 -6 10 -36 16 -67 12 -30 -3 -102 -9 -160 -12 -58 -3 -105 -12 -105 -19 0 -7 -22 -17 -49 -22 -33 -6 -45 -2 -37 13 8 12 -3 9 -23 -8 -21 -16 -61 -31 -89 -33 -82 -4 -85 -6 -70 -30 10 -16 4 -20 -17 -12 -19 8 -37 0 -44 -18 -6 -17 -24 -26 -40 -20 -15 6 -33 -2 -38 -18 -6 -15 -41 -40 -78 -56 -36 -15 -93 -57 -126 -92 -32 -36 -101 -110 -152 -165 -52 -54 -96 -105 -98 -112 -11 -44 -89 -180 -123 -218 -22 -23 -34 -53 -27 -65 7 -11 3 -21 -10 -21 -13 0 -18 -13 -12 -30 7 -16 2 -30 -9 -30 -11 0 -15 -9 -8 -20 7 -11 6 -30 -2 -43 -8 -13 -16 -55 -19 -95 -3 -40 -12 -121 -19 -182 -20 -174 -24 -385 -8 -445 9 -33 7 -60 -7 -68 -13 -8 -15 -4 -5 13 11 18 8 21 -8 11 -18 -11 -18 -21 -1 -43 13 -15 20 -55 15 -89 -5 -33 -2 -65 8 -71 9 -6 12 -19 5 -29 -6 -10 -14 -93 -16 -185 -3 -91 -12 -177 -21 -190 -8 -13 -4 -24 9 -24 13 0 18 -13 12 -30 -7 -16 -4 -30 6 -30 9 0 11 -29 3 -65 -7 -36 -13 -92 -12 -125 2 -33 -7 -67 -19 -75 -14 -9 -13 -14 4 -15 30 0 34 -135 5 -180 -23 -36 -85 32 -70 76 5 14 2 22 -7 16 -21 -13 -78 85 -91 156 -5 31 -22 70 -36 88 -22 27 -21 29 4 16 17 -8 13 -1 -7 15 -20 17 -31 39 -25 50 7 11 4 26 -8 33 -11 7 -20 35 -20 62 0 33 -8 45 -23 36 -16 -10 -20 -4 -11 19 7 18 6 33 -3 33 -9 0 -18 11 -19 25 -5 39 -42 278 -53 345 -7 37 -4 50 6 33 14 -21 20 -20 29 5 8 19 3 30 -12 27 -17 -4 -24 39 -24 148 0 84 5 150 11 146 10 -6 13 35 17 216 1 30 10 55 20 55 10 0 23 14 30 31 8 21 4 26 -13 17 -14 -8 -9 3 10 25 19 22 35 58 35 80 0 21 11 50 24 63 13 13 18 24 10 24 -7 0 4 45 26 100 22 55 33 100 26 100 -8 0 4 14 25 31 22 18 28 27 15 20 -13 -6 10 46 50 116 41 71 81 125 89 120 8 -5 15 9 15 32 0 23 14 47 30 54 17 6 30 24 30 39 0 15 9 28 20 28 11 0 20 13 20 28 0 16 27 51 60 79 33 28 60 60 60 72 0 11 11 19 24 16 13 -3 25 5 25 17 1 27 175 210 188 198 4 -5 25 13 46 39 26 33 50 44 80 36 27 -7 39 -4 30 10 -15 25 42 51 72 32 12 -7 15 -4 8 8 -14 24 121 117 141 97 20 -19 67 30 52 55 -8 13 2 11 20 -4 20 -16 34 -19 34 -7 0 27 119 87 142 72 10 -5 18 -2 18 9 0 11 44 34 97 52 146 48 185 57 276 59 46 1 79 8 75 16 -5 7 28 13 73 12 44 0 85 3 90 8 5 5 92 6 194 3 102 -4 228 -8 280 -10z m1397 -1072 c105 -55 218 -183 218 -244 0 -18 11 -44 25 -58 19 -19 25 -148 25 -507 0 -368 -6 -485 -25 -491 -14 -5 -25 -21 -25 -37 0 -108 -178 -271 -325 -299 -42 -7 -80 -21 -85 -29 -6 -9 -35 -8 -65 2 -30 10 -92 27 -138 38 -140 34 -307 230 -307 359 0 23 -7 41 -15 41 -18 0 -15 837 3 855 7 6 12 31 12 56 0 24 21 74 46 111 25 37 52 84 60 103 7 20 29 42 49 49 19 7 67 33 107 58 133 83 277 81 440 -7z m-936 -612 c2 -72 -2 -125 -9 -117 -12 12 -26 202 -19 252 8 60 25 -23 28 -135z m1424 -146 c-13 -103 -30 -109 -30 -10 0 46 9 83 20 83 11 0 16 -32 10 -73z m20 -127 c7 -11 1 -20 -14 -20 -20 -1 -20 -5 2 -18 16 -11 22 -32 15 -52 -9 -24 -5 -31 13 -24 34 13 32 -130 -2 -212 -13 -31 -23 -67 -22 -80 0 -13 13 8 28 46 l27 70 1 -74 c1 -40 -11 -86 -27 -103 -26 -25 -26 -31 -1 -40 17 -7 24 -25 18 -42 -7 -17 -22 -25 -35 -17 -15 9 -14 3 2 -17 13 -17 21 -34 17 -39 -4 -4 -13 -57 -19 -118 -14 -122 -59 -267 -78 -248 -7 6 -9 -5 -6 -25 8 -49 -79 -288 -113 -310 -14 -9 -19 -17 -10 -17 9 0 1 -27 -19 -59 -19 -32 -42 -54 -50 -49 -9 6 -12 -3 -5 -19 6 -16 -7 -41 -28 -56 -21 -15 -40 -36 -42 -47 -2 -11 -20 -39 -41 -63 -21 -24 -34 -48 -29 -52 5 -5 -6 -22 -25 -37 -30 -24 -32 -24 -18 0 12 19 10 24 -6 14 -13 -8 -20 -21 -15 -29 11 -17 -18 -52 -135 -163 -66 -62 -92 -78 -84 -50 6 22 -2 11 -19 -25 -16 -36 -44 -65 -61 -65 -16 0 -35 -13 -42 -30 -6 -16 -19 -25 -29 -19 -10 6 -18 2 -18 -10 0 -12 -25 -33 -55 -46 -30 -14 -73 -41 -94 -60 -22 -20 -52 -31 -66 -26 -15 6 -22 2 -15 -9 6 -10 -34 -42 -89 -70 -56 -28 -101 -45 -101 -39 0 7 -14 -2 -31 -20 -84 -83 -129 -19 -125 179 1 44 0 116 -2 160 -4 132 -1 157 24 188 19 23 19 26 -1 15 -15 -9 -25 -5 -25 12 0 15 11 39 25 54 20 21 20 24 0 13 -29 -17 -34 20 -5 38 11 7 20 23 20 36 0 14 -8 12 -20 -6 -13 -20 -19 39 -18 179 0 131 9 221 24 239 17 21 18 26 1 16 -28 -17 -49 205 -22 236 10 12 12 6 4 -15 -7 -19 -4 -35 7 -35 22 0 21 36 -2 73 -11 19 -21 353 -15 510 2 63 54 55 85 -14 18 -40 21 -63 8 -55 -12 6 3 -15 33 -47 31 -33 50 -65 44 -72 -7 -6 7 -17 29 -25 23 -7 42 -24 42 -37 0 -13 18 -37 40 -53 22 -16 40 -41 40 -56 0 -14 8 -22 17 -16 10 6 55 -7 100 -29 46 -22 110 -45 143 -52 33 -7 55 -18 50 -26 -5 -8 38 -8 94 1 56 9 109 12 117 7 8 -5 20 5 27 22 6 18 21 26 33 18 25 -15 143 38 179 80 13 17 34 25 45 18 13 -8 15 -3 7 10 -9 14 2 29 26 38 22 8 42 24 46 35 3 11 13 18 22 15 10 -4 12 3 5 14 -7 10 5 28 27 40 25 14 35 34 28 61 -6 22 -1 40 12 40 12 0 22 14 22 31 0 17 13 50 29 75 28 44 55 228 56 389 1 81 19 108 45 65z m-1448 -246 c-8 -122 -22 -118 -22 6 0 59 6 100 14 92 8 -7 12 -52 8 -98z"/> <path d="M2890 3220 c-7 -12 -20 -16 -28 -11 -80 49 -336 -201 -384 -376 -25 -90 3 -297 42 -310 11 -3 20 -15 20 -26 0 -84 213 -237 330 -237 26 0 53 -9 60 -20 15 -25 104 -27 118 -3 6 10 43 23 82 29 456 74 410 884 -53 942 -8 1 -20 9 -29 17 -22 22 -144 18 -158 -5z m77 -266 c227 -149 139 -474 -127 -474 -95 0 -112 7 -182 78 -203 202 71 552 309 396z"/> <path d="M928 2845 c-56 -30 -140 -77 -187 -105 -46 -27 -108 -64 -138 -81 -29 -16 -98 -57 -153 -90 -154 -91 -213 -123 -305 -167 -107 -51 -107 -73 0 -123 95 -45 200 -103 215 -120 10 -11 112 -70 320 -184 61 -33 124 -72 140 -85 17 -14 49 -31 73 -38 24 -8 54 -27 68 -43 13 -16 42 -29 65 -29 41 0 41 0 -3 46 -23 26 -43 54 -43 63 0 9 -32 48 -70 85 -39 38 -66 77 -59 87 6 10 -3 13 -21 6 -19 -7 -48 5 -72 30 -22 24 -53 43 -70 43 -17 0 -25 9 -18 20 7 11 -5 20 -26 20 -22 0 -51 14 -65 31 -14 17 -37 27 -50 21 -23 -8 -106 62 -94 80 17 27 0 50 -30 40 -21 -8 -15 3 15 27 28 22 61 40 75 41 14 0 25 7 25 15 0 16 73 51 155 75 25 7 41 21 35 30 -6 10 7 14 29 10 22 -4 38 -1 36 7 -3 8 41 59 97 114 56 54 108 115 114 134 7 19 21 35 31 35 10 0 24 14 30 30 16 41 -1 38 -119 -25z"/> </g> </svg> 